# xmcd
#
# Track frame offsets: 
#        150
#        36116
#        69912
#        94729
#        118008
#        140289
#        158273
#        176227
#        202563
#        224576
#        246913
#        262825
#
# Disc length: 3835 seconds
#
# Revision: 4
# Processed by: cddbd v1.5.2PL0 Copyright (c) Steve Scherf et al.
# Submitted via: ExactAudioCopy v1.1
#
DISCID=9c0ef90c
DTITLE=Chris Rea - CD09. Celtic and Irish Blues
DYEAR=2005
DGENRE=Blues
TTITLE0=Celtic Blue
TTITLE1=Too Far From Home
TTITLE2='Til The Morning Sun Shines On My Love And Me
TTITLE3=Lucky Day
TTITLE4=What She Really Is
TTITLE5=Wishing Well
TTITLE6=Irish Blues
TTITLE7=No More Sorrow
TTITLE8=While I Remain
TTITLE9=Last Drink
TTITLE10='Til I Find My True Love's Name
TTITLE11=Big White Door
EXTD=YEAR: 2005
EXTT0=
EXTT1=
EXTT2=
EXTT3=
EXTT4=
EXTT5=
EXTT6=
EXTT7=
EXTT8=
EXTT9=
EXTT10=
EXTT11=
PLAYORDER=
